<?xml version="1.0" standalone="no"?>
<!DOCTYPE svg PUBLIC "-//W3C//DTD SVG 20010904//EN"
 "http://www.w3.org/TR/2001/REC-SVG-20010904/DTD/svg10.dtd">
<svg version="1.0" xmlns="http://www.w3.org/2000/svg"
 width="436.000000pt" height="572.000000pt" viewBox="0 0 436.000000 572.000000"
 preserveAspectRatio="xMidYMid meet">

<g transform="translate(0.000000,572.000000) scale(0.100000,-0.100000)"
fill="#000000" stroke="none">
<path d="M1625 5668 c2 -24 7 -206 10 -405 5 -328 4 -363 -10 -363 -9 0 -23 7
-32 15 -14 14 -17 14 -32 0 -10 -8 -27 -15 -39 -15 -20 0 -22 5 -22 55 l0 55
-52 0 c-103 -1 -178 -59 -178 -138 0 -76 74 -132 174 -132 l56 0 0 55 c0 52 1
55 25 55 14 0 28 -7 31 -15 4 -8 13 -15 20 -15 8 0 17 7 20 15 4 8 15 15 25
15 17 0 19 -8 19 -87 0 -49 3 -125 7 -170 6 -82 6 -83 -17 -83 -12 0 -29 8
-35 17 -13 17 -14 17 -32 0 -11 -9 -29 -17 -41 -17 -20 0 -22 5 -22 55 0 50
-2 55 -25 61 -47 12 -127 -16 -167 -58 -32 -33 -38 -46 -38 -83 0 -79 82 -140
181 -133 l44 3 3 53 c3 48 5 52 28 52 13 0 27 -7 30 -15 4 -8 13 -15 20 -15 8
0 17 7 20 15 4 8 17 15 30 15 l24 0 0 -175 0 -175 -24 0 c-13 0 -26 7 -30 15
-3 8 -12 15 -21 15 -9 0 -18 -7 -21 -15 -4 -8 -17 -15 -30 -15 -22 0 -24 4
-24 55 l0 55 -55 0 c-69 0 -113 -18 -148 -59 -76 -91 16 -218 151 -209 l47 3
3 53 c3 45 6 52 24 52 12 0 30 -8 41 -17 18 -17 19 -17 32 0 8 11 23 17 37 15
l23 -3 7 -310 7 -310 -43 -40 c-23 -22 -84 -69 -135 -105 -52 -36 -134 -95
-185 -132 l-91 -68 -602 0 c-332 0 -603 -3 -603 -7 0 -5 11 -42 23 -83 l24
-75 481 -5 481 -5 -51 -60 c-107 -127 -175 -252 -214 -395 -27 -95 -25 -336 4
-440 31 -116 77 -228 124 -300 61 -95 208 -236 301 -289 134 -76 324 -130 458
-131 l57 0 6 -62 c9 -103 21 -486 18 -583 -4 -122 -33 -259 -73 -341 -41 -87
-127 -175 -206 -212 -52 -24 -70 -27 -169 -27 -107 0 -112 1 -185 37 -167 83
-267 246 -240 393 40 217 227 333 403 252 101 -46 155 -125 145 -212 -6 -58
-38 -100 -91 -120 -78 -30 -144 9 -168 101 l-11 41 -76 -30 c-42 -17 -78 -32
-80 -34 -10 -7 44 -104 73 -132 47 -46 119 -74 190 -73 75 0 122 18 179 71 58
54 88 122 88 206 1 91 -23 155 -83 220 -244 268 -678 74 -678 -303 0 -287 211
-486 515 -486 163 0 302 59 406 172 66 71 109 150 146 267 l28 90 -1 285 c0
157 -4 331 -8 388 -7 100 -6 102 15 102 45 0 148 33 239 77 79 38 108 59 181
132 73 73 94 102 132 181 62 128 80 208 80 350 -1 234 -93 443 -243 554 -30
22 -56 41 -57 41 -1 1 -9 48 -18 106 -8 57 -17 119 -20 137 l-6 32 1111 0
c779 0 1110 3 1110 11 0 6 -24 34 -53 63 -36 36 -71 60 -110 74 -58 22 -58 22
-1067 22 -952 0 -1009 1 -1014 18 -3 9 -12 76 -21 147 -9 72 -25 197 -37 278
l-20 148 51 110 c108 230 149 397 158 635 9 261 -22 434 -116 646 -56 124
-119 232 -195 335 -54 73 -278 303 -295 303 -6 0 -8 -17 -6 -42z m290 -611
c36 -71 65 -136 65 -143 0 -10 -16 -14 -60 -14 -33 0 -60 3 -60 8 0 4 -9 66
-20 137 -11 72 -20 138 -20 149 0 37 29 -5 95 -137z m-142 -39 c4 -73 3 -118
-3 -118 -6 0 -10 50 -10 122 0 67 2 119 4 117 2 -2 6 -57 9 -121z m14 100 c-3
-8 -6 -5 -6 6 -1 11 2 17 5 13 3 -3 4 -12 1 -19z m52 -197 c1 -15 -3 -21 -8
-15 -5 5 -12 54 -14 109 l-6 100 14 -85 c7 -47 14 -96 14 -109z m-34 67 c5
-61 3 -88 -4 -88 -7 0 -11 32 -11 92 0 50 2 89 4 87 2 -2 7 -43 11 -91z m-21
-195 c3 -32 8 -109 12 -170 5 -100 4 -113 -10 -113 -13 0 -16 12 -16 63 0 35
-3 112 -7 170 -4 73 -3 107 4 107 6 0 14 -26 17 -57z m45 -75 c6 -73 13 -150
15 -171 4 -31 1 -38 -12 -35 -14 3 -18 20 -23 93 -10 136 -10 245 0 245 5 0
14 -60 20 -132z m22 125 c0 -5 11 -80 23 -168 13 -88 22 -162 20 -164 -2 -2
-9 -1 -17 2 -10 4 -17 43 -26 139 -7 73 -15 148 -18 166 -3 20 -1 32 6 32 6 0
11 -3 12 -7z m161 -28 c13 -45 46 -203 54 -258 l6 -48 -78 3 -79 3 -16 110
c-9 61 -20 136 -23 168 l-8 58 68 -3 c66 -3 68 -4 76 -33z m-208 -372 c2 -10
8 -89 12 -175 6 -154 6 -158 -14 -158 -27 0 -32 32 -32 206 0 118 3 144 14
144 8 0 17 -8 20 -17z m47 15 c5 -25 34 -340 30 -343 -2 -3 -12 -5 -22 -5 -21
0 -26 28 -35 213 -6 122 -5 137 10 137 9 0 16 -1 17 -2z m77 -160 c27 -198 27
-190 0 -186 -22 3 -24 10 -35 118 -6 63 -14 141 -18 173 -5 51 -4 57 12 57 17
0 22 -19 41 -162z m148 136 c7 -27 -3 -210 -14 -279 -7 -39 -9 -40 -49 -43
-37 -3 -43 0 -47 20 -6 28 -22 150 -31 233 -3 33 -8 68 -11 78 -5 15 3 17 70
17 73 0 76 -1 82 -26z m-251 -386 c2 -7 9 -103 14 -213 l10 -200 -26 -37 c-14
-21 -29 -38 -33 -38 -4 0 -9 113 -9 250 -2 247 -2 250 19 250 11 0 23 -6 25
-12z m69 -15 c3 -16 10 -86 17 -158 11 -127 11 -131 -11 -167 -12 -21 -25 -38
-30 -38 -4 0 -10 57 -14 128 -4 70 -9 157 -13 195 -6 67 -5 67 20 67 20 0 27
-6 31 -27z m70 4 c3 -13 9 -56 12 -96 6 -57 3 -79 -11 -111 -10 -22 -21 -37
-25 -35 -4 2 -10 48 -14 102 -4 54 -9 113 -13 131 -5 29 -3 32 20 32 18 0 27
-7 31 -23z m76 15 c0 -12 -31 -115 -38 -127 -7 -11 -21 53 -21 103 -1 29 2 32
29 32 17 0 30 -4 30 -8z m14 -675 c20 -147 34 -272 31 -278 -9 -14 -75 -11
-80 4 -6 17 -45 404 -45 449 0 38 39 114 51 100 3 -4 22 -128 43 -275z m-93
-5 c10 -92 18 -193 18 -224 l1 -58 -40 0 c-22 0 -40 1 -41 3 0 1 -6 90 -12
197 l-12 195 29 33 c16 18 31 30 34 27 4 -3 14 -81 23 -173z m-97 -24 c3 -62
9 -146 12 -186 l6 -73 -43 3 -44 3 -3 154 -3 154 28 29 c15 15 30 28 34 28 3
0 9 -51 13 -112z m-194 -158 l0 -100 -141 0 c-86 0 -139 4 -137 10 3 10 258
189 271 190 4 0 7 -45 7 -100z m-550 -175 c0 -3 -17 -20 -37 -40 l-38 -34
-372 -1 -373 0 -6 28 c-3 15 -7 33 -10 40 -3 9 85 12 416 12 231 0 420 -2 420
-5z m555 -25 c4 -16 4 -34 0 -40 -8 -13 -475 -14 -475 -1 0 5 17 23 38 40 l37
30 197 1 196 0 7 -30z m209 14 c3 -9 6 -27 6 -40 0 -24 -3 -25 -47 -22 -39 2
-48 6 -47 21 1 9 2 26 3 37 1 16 8 20 40 20 26 0 41 -5 45 -16z m110 -6 c13
-51 9 -58 -38 -58 -37 0 -45 4 -50 23 -13 50 -9 57 38 57 37 0 45 -4 50 -22z
m110 6 c3 -9 6 -27 6 -40 0 -22 -4 -24 -44 -24 -45 0 -55 12 -56 63 0 24 85
25 94 1z m2054 1 c28 -9 64 -27 79 -40 l28 -24 -1066 -1 c-1168 0 -1079 -5
-1079 56 l0 24 993 0 c864 0 1000 -2 1045 -15z m-2480 -171 l3 -82 -53 -12
c-346 -79 -522 -461 -353 -766 35 -62 123 -164 141 -164 6 0 41 44 77 99 l65
98 -43 31 c-225 158 -165 500 105 603 27 10 51 15 54 10 3 -4 8 -149 11 -322
3 -173 7 -430 10 -571 l6 -258 -56 0 c-125 0 -280 49 -384 120 -67 45 -175
156 -221 223 -46 70 -97 185 -117 264 -24 101 -21 295 6 398 34 129 115 280
201 378 l32 37 257 -2 256 -3 3 -81z m216 5 c4 -44 5 -83 2 -86 -3 -3 -25 -2
-50 1 l-44 7 -4 75 c-2 42 -1 78 1 80 2 2 23 4 46 4 l42 0 7 -81z m110 54 c3
-16 8 -61 12 -102 5 -64 4 -73 -9 -68 -9 3 -31 9 -50 12 -32 6 -35 10 -41 52
-3 25 -6 65 -6 89 l0 44 44 0 c40 0 45 -2 50 -27z m111 15 c7 -20 32 -233 29
-237 -2 -3 -26 6 -53 19 -49 22 -49 23 -55 79 -4 31 -9 77 -12 104 l-6 47 46
0 c28 0 48 -5 51 -12z m-184 -698 c15 -250 28 -502 30 -559 l4 -104 -35 -12
c-19 -7 -51 -15 -71 -19 l-37 -6 -6 187 c-3 104 -9 365 -12 581 l-6 393 53 -3
54 -3 26 -455z m52 434 c26 -9 47 -17 47 -17 1 -1 23 -222 50 -492 l50 -490
-26 -21 c-29 -24 -113 -68 -118 -63 -3 4 -17 234 -55 934 -7 133 -7 165 3 165
1 0 23 -7 49 -16z m157 -99 c29 -30 30 -35 79 -380 l49 -350 -23 -40 c-28 -48
-91 -122 -98 -115 -6 6 -48 419 -72 705 -8 99 -17 195 -21 213 l-5 34 31 -18
c17 -10 44 -32 60 -49z m93 -102 c73 -106 113 -251 103 -375 -6 -78 -40 -208
-55 -208 -4 0 -17 80 -30 178 -29 233 -50 392 -56 420 -8 33 9 27 38 -15z"/>
</g>
</svg>
