<?xml version="1.0" standalone="no"?>
<!DOCTYPE svg PUBLIC "-//W3C//DTD SVG 20010904//EN"
 "http://www.w3.org/TR/2001/REC-SVG-20010904/DTD/svg10.dtd">
<svg version="1.0" xmlns="http://www.w3.org/2000/svg"
 width="16.000000pt" height="16.000000pt" viewBox="0 0 16.000000 16.000000"
 preserveAspectRatio="xMidYMid meet">

<g transform="translate(0.000000,16.000000) scale(0.100000,-0.100000)"
fill="#000000" stroke="none">
<path d="M22 138 c-16 -16 -15 -53 2 -67 11 -9 16 -9 23 1 4 7 22 24 38 38
l30 25 -24 -27 c-20 -23 -22 -28 -8 -28 9 0 17 -4 17 -9 0 -4 -12 -7 -26 -5
-19 2 -24 0 -15 -9 8 -8 7 -14 -1 -24 -6 -7 -8 -17 -4 -20 4 -4 11 -2 15 6 5
7 12 13 17 14 5 1 8 7 6 12 -2 6 0 7 4 2 13 -13 54 35 54 64 0 31 -32 48 -55
29 -9 -7 -15 -8 -20 0 -8 14 -38 13 -53 -2z"/>
</g>
</svg>
